<?xml version="1.0" encoding="iso-8859-1"?>
<!-- Generator: Adobe Illustrator 21.0.0, SVG Export Plug-In . SVG Version: 6.00 Build 0)  -->
<svg xmlns="http://www.w3.org/2000/svg" xmlns:xlink="http://www.w3.org/1999/xlink" version="1.1" id="Capa_1" x="0px" y="0px" viewBox="0 0 512 512" style="enable-background:new 0 0 512 512;" xml:space="preserve" width="512" height="512">
<g>
	<circle style="fill:#FEDB41;" cx="256" cy="256" r="256"/>
	<path style="fill:#FEA832;" d="M512,256c0-7.397-0.332-14.716-0.947-21.955L374.008,97L137.992,415l96.053,96.053   C241.284,511.668,248.603,512,256,512C397.385,512,512,397.385,512,256z"/>
	<g>
		<path style="fill:#BF6016;" d="M374.008,415H137.992V97h236.016V415z"/>
		<rect x="256" y="97" style="fill:#994C11;" width="118.008" height="318"/>
		<path style="fill:#FEA832;" d="M256,246.063h-37.266c-15.411,0-27.949-12.538-27.949-27.949v-77.637h93.164v77.637    C283.949,233.525,271.411,246.063,256,246.063z M209.418,159.109v59.004c0,5.137,4.179,9.316,9.316,9.316H256    c5.137,0,9.316-4.179,9.316-9.316v-59.004H209.418z"/>
		<path style="fill:#FEA832;" d="M237.367,208.797L237.367,208.797c-5.145,0-9.316-4.171-9.316-9.316v-12.422    c0-5.145,4.171-9.316,9.316-9.316l0,0c5.145,0,9.316,4.171,9.316,9.316v12.422C246.684,204.626,242.513,208.797,237.367,208.797z"/>
		<path style="fill:#FFBF7A;" d="M299.477,215.008h-27.949v-55.898h27.949c11.986,0,21.738,9.752,21.738,21.738v12.422    C321.215,205.256,311.463,215.008,299.477,215.008z M283.949,196.375h15.527c1.712,0,3.105-1.393,3.105-3.105v-12.422    c0-1.712-1.393-3.105-3.105-3.105h-15.527V196.375z"/>
		<rect x="309.414" y="284.57" style="fill:#FFBF7A;" width="23.602" height="18.633"/>
		<rect x="178.984" y="284.57" style="fill:#FFDF82;" width="111.797" height="18.633"/>
		<rect x="178.984" y="321.836" style="fill:#FFDF82;" width="70.805" height="18.633"/>
		<rect x="309.414" y="321.836" style="fill:#FFBF7A;" width="23.602" height="18.633"/>
		<rect x="309.414" y="359.102" style="fill:#FFBF7A;" width="23.602" height="18.633"/>
		<rect x="178.984" y="359.102" style="fill:#FFDF82;" width="100.617" height="18.633"/>
		<path style="fill:#FE9922;" d="M256,159.109h9.316v59.004c0,5.137-4.179,9.316-9.316,9.316v18.633    c15.411,0,27.949-12.538,27.949-27.949v-77.637H256V159.109z"/>
		<rect x="256" y="284.57" style="fill:#FFBF7A;" width="34.781" height="18.633"/>
		<rect x="256" y="359.102" style="fill:#FFBF7A;" width="23.602" height="18.633"/>
	</g>
</g>















</svg>
